# xmcd
#
# Track frame offsets:
#	150
#	17627
#	32700
#	47735
#	59862
#	75390
#	88990
#	103215
#	120152
#	139530
#	152930
#	166495
#
# Disc length: 2394 seconds
#
# Revision: 1
# Processed by: cddbd v1.4b41PL1 Copyright (c) Steve Scherf et al.
# Submitted via: audiograbber 1.80
#
DISCID=9b09580c
DTITLE=Reidar Larsen - Red, White and  Blues
DYEAR=1900
DGENRE=
TTITLE0=Going away blues
TTITLE1=I'm gonna have to do it
TTITLE2=What about me
TTITLE3=Swanee river boogie
TTITLE4=Too many times
TTITLE5=She's dynamite
TTITLE6=I'll give you money
TTITLE7=Stickin' witcha woman
TTITLE8=Born to ramble
TTITLE9=It makes no difference
TTITLE10=Cook house shuffle
TTITLE11=Ko-Ko-Mo
EXTD=
EXTT0=
EXTT1=
EXTT2=
EXTT3=
EXTT4=
EXTT5=
EXTT6=
EXTT7=
EXTT8=
EXTT9=
EXTT10=
EXTT11=
PLAYORDER=
